<svg xmlns="http://www.w3.org/2000/svg" data-name="Layer 1" viewBox="0 0 750 625" x="0px" y="0px"><path d="M355.23,242.73H109.76q-39.56,0-78.94-2L17.52,240l13.3-.69q39.34-2,78.94-2H355.23Zm363.95-3.4q-39.34-2-78.94-2H394.77v5.42H640.24q39.56,0,78.94-2l13.3-.68ZM388.87,240,375,226.15,361.13,240,375,253.89Zm-6.39,26.35L375,258.89l-7.48,7.48,7.48,7.48ZM366.71,255l-7.48-7.48L351.75,255l7.48,7.49Zm31.54,0-7.48-7.48L383.29,255l7.48,7.49Z"/><text x="0" y="515" fill="#000000" font-size="5px" font-weight="bold" font-family="'Helvetica Neue', Helvetica, Arial-Unicode, Arial, Sans-serif">Created by KEN111</text><text x="0" y="520" fill="#000000" font-size="5px" font-weight="bold" font-family="'Helvetica Neue', Helvetica, Arial-Unicode, Arial, Sans-serif">from the Noun Project</text></svg>